# xmcd CD database file
#
# Track frame offsets:
#	150
#	22310
#	38722
#	64057
#	82405
#	105802
#	131252
#	151957
#	169952
#	185710
#
# Disc length: 2907 seconds
#
# Revision: 0
# Processed by: cddbd v1.5.1PL0 Copyright (c) Steve Scherf et al.
# Submitted via: CDex 1.50beta8
#
DISCID=830b590a
DTITLE=松山千春 - 大いなる愛よ夢よ
DYEAR=1982
DGENRE=New Age
TTITLE0=門出
TTITLE1=LOVE
TTITLE2=愛にまぎれて
TTITLE3=黄昏
TTITLE4=大いなる愛よ夢よ
TTITLE5=忘れたい夜
TTITLE6=サンバ
TTITLE7=俺とお前のブルース
TTITLE8=愛は気まぐれ
TTITLE9=はまなす
EXTD=YEAR: 1982
EXTT0=
EXTT1=
EXTT2=
EXTT3=
EXTT4=
EXTT5=
EXTT6=
EXTT7=
EXTT8=
EXTT9=
PLAYORDER=
